<?xml version="1.0" standalone="no"?><!DOCTYPE svg PUBLIC "-//W3C//DTD SVG 1.1//EN" "http://www.w3.org/Graphics/SVG/1.1/DTD/svg11.dtd"><svg class="icon" width="32px" height="32.00px" viewBox="0 0 1024 1024" version="1.1" xmlns="http://www.w3.org/2000/svg"><path fill="#1296db" d="M820.441373 609.207949c-14.488992 0-26.238594 11.747555-26.238594 26.236548l0 153.751756c0 33.666774-34.70543 69.272713-67.521836 69.272713L271.245216 858.468966c-32.465412 0-54.276161-35.809577-54.276161-69.272713l0-153.751756c0-14.487969-11.748578-26.236548-26.237571-26.236548-14.491039 0-26.238594 11.747555-26.238594 26.236548l0 153.751756c0 58.548464 40.810474 121.747855 106.751303 121.747855L726.680942 910.944108c61.680804 0 119.999025-59.161425 119.999025-121.747855l0-153.751756C846.679967 620.955504 834.931389 609.207949 820.441373 609.207949zM597.419973 805.990754c7.242961 0 13.117762-5.877871 13.117762-13.116739s-5.874801-13.118785-13.117762-13.118785l-39.35738 0c-7.246031 0-13.119809 5.879917-13.119809 13.118785s5.873778 13.116739 13.119809 13.116739L597.419973 805.990754zM741.727637 753.515612 741.727637 635.444497c0-7.238868-5.874801-13.116739-13.119809-13.116739-7.242961 0-13.117762 5.877871-13.117762 13.116739l0 118.072139c0 17.564028-18.376533 25.89067-21.914102 26.238594-7.243985 0-13.117762 5.879917-13.117762 13.118785s5.873778 13.116739 13.117762 13.116739C707.976952 805.990754 741.727637 788.144294 741.727637 753.515612zM824.048527 116.124787c-4.580319-3.530406-10.205433-5.437849-15.988136-5.437849L213.657636 110.686938c-5.835915 0-11.498892 1.940189-16.104793 5.52176C139.638829 161.234171 62.045613 313.600371 62.045613 407.726122c0 84.08814 66.703191 177.778986 162.417113 177.778986 62.629409 0 118.603235-28.021194 150.933571-71.591525 33.078373 44.545542 91.089601 69.784366 143.712099 69.784366 51.783387 0 107.054201-25.662473 136.14782-70.891584 37.198204 41.47767 94.727455 64.550155 133.911896 70.761624 10.223852 1.616824 20.216437 2.436492 29.716812 2.436492 36.83186 0 68.740594-12.543687 92.26845-36.283368 28.600385-28.844955 44.74918-74.459852 44.300972-125.141138C954.828083 353.772302 883.672486 161.957649 824.048527 116.124787zM873.885586 512.786922c-17.873066 18.025539-43.23878 24.207331-76.504418 18.949584-40.60479-6.435573-103.499236-36.271088-121.247458-83.098603L676.133709 294.350958c0-14.488992-11.747555-26.237571-26.238594-26.237571-14.488992 0-26.238594 11.748578-26.238594 26.237571l0 151.34801c-0.226151 1.061169-0.411369 2.137687-0.505513 3.241834-4.40124 51.503001-56.357566 82.280981-104.042611 82.280981-49.977251 0-109.018949-34.225499-117.263727-85.183078-0.260943-1.61887-0.673335-3.179412-1.210571-4.677533L400.634098 294.350958c0-14.488992-11.748578-26.237571-26.238594-26.237571s-26.237571 11.748578-26.237571 26.237571l0 158.935826c-14.015202 46.678112-64.510246 79.743182-123.695207 79.743182-62.923098 0-109.941971-66.151629-109.941971-125.302821 0-77.233012 65.985854-204.067722 108.847034-244.565065l574.788022 0c42.877553 43.2572 104.304577 203.204052 104.824417 261.879406C903.300522 461.278805 892.422777 494.082932 873.885586 512.786922zM439.991478 268.113387c-7.246031 0-13.118785 5.873778-13.118785 13.119809l0 39.356356c0 7.245008 5.873778 13.118785 13.118785 13.118785 7.245008 0 13.118785-5.873778 13.118785-13.118785l0-39.356356C453.111287 273.988188 447.236486 268.113387 439.991478 268.113387z" /></svg>