<?xml version="1.0" standalone="no"?><!DOCTYPE svg PUBLIC "-//W3C//DTD SVG 1.1//EN" "http://www.w3.org/Graphics/SVG/1.1/DTD/svg11.dtd"><svg class="icon" width="32px" height="32.00px" viewBox="0 0 1024 1024" version="1.1" xmlns="http://www.w3.org/2000/svg"><path fill="#333333" d="M346.2144 760.0128a98.7136 98.7136 0 1 0 98.7136 98.7136 98.816 98.816 0 0 0-98.7136-98.7136z m0 148.0704a49.3568 49.3568 0 1 1 49.3568-49.3568 49.4592 49.4592 0 0 1-49.3568 49.3568zM787.0464 760.0128a98.7136 98.7136 0 1 0 98.7136 98.7136 98.816 98.816 0 0 0-98.7136-98.7136z m0 148.0704a49.3568 49.3568 0 1 1 49.3568-49.3568 49.4592 49.4592 0 0 1-49.3568 49.3568zM938.0864 164.5568H173.056c-1.7408 0-3.4816 0-5.2224 0.512l-40.96-77.6192c0-0.6144-0.8192-1.2288-1.2288-1.7408A24.576 24.576 0 0 0 105.8816 71.68L51.2 66.6624a24.6784 24.6784 0 1 0-4.9152 49.152l41.5744 4.096 36.4544 68.8128a61.44 61.44 0 0 0-13.1072 37.5808 24.9856 24.9856 0 0 0 0.6144 5.3248l99.1232 445.7472c13.312 45.4656 43.7248 54.784 85.4016 54.784h518.3488c45.568 0 77.6192-20.48 85.8112-56.32l98.7136-444.2112a24.9856 24.9856 0 0 0 0.6144-5.3248 61.44 61.44 0 0 0-61.7472-61.7472z m-85.7088 500.3264c-3.584 15.5648-25.088 17.92-37.6832 17.92H296.96c-32.3584 0-33.9968-5.632-37.5808-17.7152l-97.9968-440.32a12.3904 12.3904 0 0 1 12.1856-10.24h764.5184a12.3904 12.3904 0 0 1 12.1856 10.24z"  /><path fill="#333333" d="M400.4864 371.6096a24.6784 24.6784 0 1 0 0-49.3568h-26.4192v-26.5216a24.6784 24.6784 0 1 0-49.3568 0v26.5216h-26.5216a24.6784 24.6784 0 0 0 0 49.3568h26.5216v26.5216a24.6784 24.6784 0 0 0 49.3568 0v-26.5216zM606.72 371.6096a24.6784 24.6784 0 0 0 0-49.3568h-26.4192v-26.5216a24.6784 24.6784 0 0 0-49.3568 0v26.5216h-26.5216a24.6784 24.6784 0 0 0 0 49.3568h26.5216v26.5216a24.6784 24.6784 0 0 0 49.3568 0v-26.5216zM812.9536 322.2528H786.432v-26.5216a24.6784 24.6784 0 0 0-49.3568 0v26.5216H710.656a24.6784 24.6784 0 1 0 0 49.3568H737.28v26.5216a24.6784 24.6784 0 0 0 49.3568 0v-26.5216h26.5216a24.6784 24.6784 0 0 0 0-49.3568zM503.6032 525.1072H477.184v-26.5216a24.6784 24.6784 0 1 0-49.3568 0v26.5216h-26.5216a24.6784 24.6784 0 1 0 0 49.3568h26.5216v26.5216a24.6784 24.6784 0 1 0 49.3568 0V574.464h26.5216a24.6784 24.6784 0 0 0 0-49.3568zM709.8368 525.1072h-26.5216v-26.5216a24.6784 24.6784 0 1 0-49.3568 0v26.5216h-26.4192a24.6784 24.6784 0 0 0 0 49.3568h26.5216v26.5216a24.6784 24.6784 0 1 0 49.3568 0V574.464h26.5216a24.6784 24.6784 0 1 0 0-49.3568z"  /></svg>